<svg width="235" height="81" viewBox="0 0 235 81" fill="none" xmlns="http://www.w3.org/2000/svg">
<path d="M123.182 44.0172L124.822 46.69L125.064 47.0845L124.688 47.356L117.221 52.7505L116.929 52.9615L116.636 52.7515L109.124 47.357L108.747 47.0865L108.99 46.69L110.629 44.0172L110.91 43.5601L111.346 43.8726L116.926 47.8687L122.464 43.8736L122.901 43.5582L123.182 44.0172Z" fill="#188C01" stroke="#188C01"/>
<path d="M10.017 18.6672C11.4001 18.6672 12.6656 18.873 13.8133 19.2846C14.9905 19.6669 15.7998 20.1667 16.2412 20.7841L16.4619 21.0928V14.7422H3.43958V11.6551H19.7727V33.7059H16.4619V31.6331L16.2412 31.8536C15.5349 32.5592 14.6373 33.1473 13.5485 33.6177C12.4596 34.0881 11.356 34.3233 10.2377 34.3233C8.44252 34.3233 6.85335 33.9852 5.47019 33.309C4.11645 32.6327 3.04229 31.6919 2.24771 30.4865C1.48255 29.281 1.09998 27.8992 1.09998 26.3409C1.09998 24.8414 1.46784 23.5184 2.20356 22.3718C2.96872 21.1957 4.02816 20.2843 5.3819 19.6375C6.73564 18.9906 8.28066 18.6672 10.017 18.6672ZM4.41074 26.3409C4.41074 27.7816 4.95518 28.9576 6.04405 29.869C7.13293 30.7805 8.53081 31.2362 10.2377 31.2362C12.0623 31.2362 13.5485 30.7805 14.6962 29.869C15.8734 28.9576 16.4619 27.7816 16.4619 26.3409C16.4619 24.9885 15.8586 23.8859 14.652 23.0333C13.4749 22.1806 11.9299 21.7543 10.017 21.7543C8.36895 21.7543 7.01521 22.1806 5.95577 23.0333C4.92575 23.8859 4.41074 24.9885 4.41074 26.3409Z" fill="black"/>
<path d="M48.9785 33.7059H26.7743V30.6188H35.8237V4.7311H28.9373V1.64398H39.1345V30.6188H48.9785V33.7059Z" fill="black"/>
<path d="M53.3756 22.46C53.3756 20.0197 53.7876 17.9175 54.6116 16.1534C55.4651 14.3894 56.6569 13.0369 58.1873 12.0961C59.747 11.1258 61.5716 10.6407 63.6611 10.6407C65.6622 10.6407 67.3985 11.1258 68.87 12.0961C70.3414 13.0663 71.4745 14.4629 72.269 16.2857C73.0636 18.0792 73.4609 20.2108 73.4609 22.6805V23.0333H56.6422C56.7894 25.5324 57.5251 27.5169 58.8494 28.987C60.1737 30.4571 61.8806 31.1921 63.9701 31.1921C65.8535 31.1921 67.3397 30.7217 68.4286 29.7808C69.5469 28.84 70.1943 27.5169 70.3709 25.8117H73.4609C73.1666 28.5166 72.1955 30.6041 70.5474 32.0741C68.9289 33.5442 66.7364 34.2792 63.9701 34.2792C61.8217 34.2792 59.953 33.8088 58.3638 32.8679C56.7747 31.8977 55.5386 30.5306 54.6558 28.7665C53.8023 26.973 53.3756 24.8708 53.3756 22.46ZM63.6611 13.7278C61.7776 13.669 60.2326 14.1983 59.026 15.3155C57.8488 16.4327 57.1867 17.9763 57.0395 19.9462H70.0177C69.9 18.0939 69.2673 16.6091 68.1196 15.4919C66.9718 14.3747 65.4857 13.7866 63.6611 13.7278Z" fill="black"/>
<path d="M80.6391 11.6551H84.612L90.6155 19.8139L96.7073 11.6551H100.68L92.7344 22.5923L100.945 33.7059H96.9722L90.748 25.2825L84.6561 33.7059H80.2418L88.6291 22.46L80.6391 11.6551Z" fill="black"/>
<path d="M115.893 18.6672C117.276 18.6672 118.541 18.873 119.689 19.2846C120.866 19.6669 121.675 20.1667 122.117 20.7841L122.338 21.0928V14.7422H109.315V11.6551H125.648V33.7059H122.338V31.6331L122.117 31.8536C121.41 32.5592 120.513 33.1473 119.424 33.6177C118.335 34.0881 117.232 34.3233 116.113 34.3233C114.318 34.3233 112.729 33.9852 111.346 33.309C109.992 32.6327 108.918 31.6919 108.123 30.4865C107.358 29.281 106.976 27.8992 106.976 26.3409C106.976 24.8414 107.343 23.5184 108.079 22.3718C108.844 21.1957 109.904 20.2843 111.257 19.6375C112.611 18.9906 114.156 18.6672 115.893 18.6672ZM110.286 26.3409C110.286 27.7816 110.831 28.9576 111.92 29.869C113.008 30.7805 114.406 31.2362 116.113 31.2362C117.938 31.2362 119.424 30.7805 120.572 29.869C121.749 28.9576 122.338 27.7816 122.338 26.3409C122.338 24.9885 121.734 23.8859 120.528 23.0333C119.35 22.1806 117.805 21.7543 115.893 21.7543C114.245 21.7543 112.891 22.1806 111.831 23.0333C110.801 23.8859 110.286 24.9885 110.286 26.3409Z" fill="black"/>
<path d="M134.283 33.7059V11.6551H152.956L153 33.7059H149.689L149.645 14.7422H137.594V33.7059H134.283Z" fill="black"/>
<path d="M179.425 33.7059H176.114V31.0157C175.29 32.0447 174.26 32.8532 173.024 33.4413C171.788 33.9999 170.39 34.2792 168.83 34.2792C165.711 34.2792 163.224 33.2502 161.37 31.1921C159.545 29.134 158.633 26.3409 158.633 22.8128C158.633 20.3137 159.045 18.1527 159.869 16.3298C160.693 14.507 161.87 13.1104 163.401 12.1402C164.931 11.1405 166.741 10.6407 168.83 10.6407C171.95 10.6407 174.378 11.8021 176.114 14.1247V4.7311H173.642V1.64398H179.425V33.7059ZM161.944 22.8128C161.944 25.4001 162.562 27.4581 163.798 28.987C165.063 30.5159 166.77 31.2803 168.919 31.2803C171.126 31.2803 172.877 30.5159 174.172 28.987C175.467 27.4581 176.114 25.4001 176.114 22.8128C176.114 19.9903 175.467 17.7558 174.172 16.1093C172.877 14.4629 171.126 13.6396 168.919 13.6396C166.77 13.6396 165.063 14.4629 163.798 16.1093C162.562 17.7558 161.944 19.9903 161.944 22.8128Z" fill="black"/>
<path d="M185.72 22.46C185.72 20.0197 186.132 17.9175 186.956 16.1534C187.81 14.3894 189.001 13.0369 190.532 12.0961C192.091 11.1258 193.916 10.6407 196.006 10.6407C198.007 10.6407 199.743 11.1258 201.214 12.0961C202.686 13.0663 203.819 14.4629 204.613 16.2857C205.408 18.0792 205.805 20.2108 205.805 22.6805V23.0333H188.987C189.134 25.5324 189.87 27.5169 191.194 28.987C192.518 30.4571 194.225 31.1921 196.315 31.1921C198.198 31.1921 199.684 30.7217 200.773 29.7808C201.891 28.84 202.539 27.5169 202.715 25.8117H205.805C205.511 28.5166 204.54 30.6041 202.892 32.0741C201.273 33.5442 199.081 34.2792 196.315 34.2792C194.166 34.2792 192.297 33.8088 190.708 32.8679C189.119 31.8977 187.883 30.5306 187 28.7665C186.147 26.973 185.72 24.8708 185.72 22.46ZM196.006 13.7278C194.122 13.669 192.577 14.1983 191.37 15.3155C190.193 16.4327 189.531 17.9763 189.384 19.9462H202.362C202.244 18.0939 201.612 16.6091 200.464 15.4919C199.316 14.3747 197.83 13.7866 196.006 13.7278Z" fill="black"/>
<path d="M216.338 33.7059V11.6551H233.863V14.9627H219.649V33.7059H216.338Z" fill="black"/>
<path d="M6.61792 74.3991V79.3826H3.30715V47.3207H6.61792V69.9007L18.3601 57.3318H22.333L13.1953 67.2546L23.0393 79.3826H18.8457L10.8998 69.7243L6.61792 74.3991Z" fill="black"/>
<path d="M27.1716 68.1367C27.1716 65.814 27.613 63.7706 28.4959 62.0065C29.4082 60.2425 30.6589 58.8606 32.2481 57.861C33.8373 56.8319 35.6619 56.3174 37.7219 56.3174C39.7525 56.3174 41.5477 56.8319 43.1074 57.861C44.6671 58.8606 45.8884 60.2425 46.7713 62.0065C47.6542 63.7706 48.0956 65.814 48.0956 68.1367C48.0956 70.4299 47.6542 72.4733 46.7713 74.2668C45.9179 76.0309 44.726 77.4274 43.1957 78.4564C41.6654 79.4561 39.8996 79.9559 37.8985 79.9559C35.7796 79.9559 33.9108 79.4561 32.2922 78.4564C30.7031 77.4274 29.4523 76.0309 28.54 74.2668C27.6277 72.4733 27.1716 70.4299 27.1716 68.1367ZM37.8985 76.8688C39.2522 76.8688 40.4441 76.5013 41.4741 75.7662C42.5041 75.0018 43.3134 73.9728 43.902 72.6791C44.4906 71.3561 44.7849 69.8419 44.7849 68.1367C44.7849 66.4314 44.4758 64.9319 43.8578 63.6383C43.2693 62.3152 42.4452 61.2862 41.3858 60.5512C40.3264 59.7867 39.1051 59.4045 37.7219 59.4045C36.2799 59.4045 34.9997 59.7867 33.8814 60.5512C32.7925 61.2862 31.9391 62.3152 31.3211 63.6383C30.7325 64.9319 30.4529 66.4314 30.4823 68.1367C30.5118 69.8419 30.8355 71.3561 31.4535 72.6791C32.1009 73.9728 32.9838 75.0018 34.1021 75.7662C35.2204 76.5013 36.4859 76.8688 37.8985 76.8688Z" fill="black"/>
<path d="M65.9565 79.3826H62.0277L53.0225 57.3318H56.6864L64.0142 75.237L71.2979 57.3318H74.9618L65.9565 79.3826Z" fill="black"/>
<path d="M89.4236 64.3439C90.8068 64.3439 92.0723 64.5497 93.22 64.9613C94.3972 65.3436 95.2065 65.8434 95.6479 66.4608L95.8686 66.7695V60.4189H82.8463V57.3318H99.1794V79.3826H95.8686V77.3098L95.6479 77.5303C94.9416 78.2359 94.044 78.824 92.9551 79.2944C91.8663 79.7648 90.7627 80 89.6444 80C87.8492 80 86.26 79.6619 84.8769 78.9857C83.5231 78.3094 82.449 77.3686 81.6544 76.1632C80.8892 74.9577 80.5066 73.5759 80.5066 72.0176C80.5066 70.5181 80.8745 69.1951 81.6102 68.0485C82.3754 66.8724 83.4348 65.961 84.7886 65.3141C86.1423 64.6673 87.6873 64.3439 89.4236 64.3439ZM83.8174 72.0176C83.8174 73.4583 84.3619 74.6343 85.4507 75.5457C86.5396 76.4572 87.9375 76.9129 89.6444 76.9129C91.469 76.9129 92.9551 76.4572 94.1029 75.5457C95.28 74.6343 95.8686 73.4583 95.8686 72.0176C95.8686 70.6651 95.2653 69.5626 94.0587 68.71C92.8816 67.8573 91.3365 67.431 89.4236 67.431C87.7756 67.431 86.4219 67.8573 85.3624 68.71C84.3324 69.5626 83.8174 70.6651 83.8174 72.0176Z" fill="black"/>
<path d="M117.217 76.8688C118.806 76.8688 120.174 76.3837 121.322 75.4134C122.499 74.4432 123.279 73.1348 123.662 71.4884H126.884C126.384 74.0757 125.266 76.1338 123.529 77.6626C121.793 79.1915 119.689 79.9559 117.217 79.9559C115.069 79.9559 113.2 79.4855 111.611 78.5446C110.021 77.5744 108.785 76.2073 107.903 74.4432C107.049 72.6497 106.622 70.5475 106.622 68.1367C106.622 65.6964 107.034 63.5942 107.858 61.8301C108.712 60.0661 109.904 58.7136 111.434 57.7728C112.994 56.8025 114.833 56.3174 116.952 56.3174C119.571 56.3174 121.778 57.126 123.574 58.743C125.369 60.3307 126.472 62.4916 126.884 65.2259H123.662C123.368 63.4325 122.602 62.0212 121.366 60.9922C120.16 59.9338 118.688 59.4045 116.952 59.4045C114.745 59.4045 113.008 60.1837 111.743 61.7419C110.507 63.3002 109.904 65.4318 109.933 68.1367C109.992 70.8122 110.669 72.9437 111.964 74.5314C113.288 76.0897 115.039 76.8688 117.217 76.8688Z" fill="black"/>
<path d="M138.962 74.3991V79.3826H135.652V47.3207H138.962V69.9007L150.705 57.3318H154.677L145.54 67.2546L155.384 79.3826H151.19L143.244 69.7243L138.962 74.3991Z" fill="black"/>
<path d="M168.83 64.3439C170.213 64.3439 171.479 64.5497 172.627 64.9613C173.804 65.3436 174.613 65.8434 175.055 66.4608L175.275 66.7695V60.4189H162.253V57.3318H178.586V79.3826H175.275V77.3098L175.055 77.5303C174.348 78.2359 173.451 78.824 172.362 79.2944C171.273 79.7648 170.169 80 169.051 80C167.256 80 165.667 79.6619 164.284 78.9857C162.93 78.3094 161.856 77.3686 161.061 76.1632C160.296 74.9577 159.913 73.5759 159.913 72.0176C159.913 70.5181 160.281 69.1951 161.017 68.0485C161.782 66.8724 162.842 65.961 164.195 65.3141C165.549 64.6673 167.094 64.3439 168.83 64.3439ZM163.224 72.0176C163.224 73.4583 163.769 74.6343 164.857 75.5457C165.946 76.4572 167.344 76.9129 169.051 76.9129C170.876 76.9129 172.362 76.4572 173.51 75.5457C174.687 74.6343 175.275 73.4583 175.275 72.0176C175.275 70.6651 174.672 69.5626 173.465 68.71C172.288 67.8573 170.743 67.431 168.83 67.431C167.182 67.431 165.829 67.8573 164.769 68.71C163.739 69.5626 163.224 70.6651 163.224 72.0176Z" fill="black"/>
<path d="M10.017 18.6672C11.4001 18.6672 12.6656 18.873 13.8133 19.2846C14.9905 19.6669 15.7998 20.1667 16.2412 20.7841L16.4619 21.0928V14.7422H3.43958V11.6551H19.7727V33.7059H16.4619V31.6331L16.2412 31.8536C15.5349 32.5592 14.6373 33.1473 13.5485 33.6177C12.4596 34.0881 11.356 34.3233 10.2377 34.3233C8.44252 34.3233 6.85335 33.9852 5.47019 33.309C4.11645 32.6327 3.04229 31.6919 2.24771 30.4865C1.48255 29.281 1.09998 27.8992 1.09998 26.3409C1.09998 24.8414 1.46784 23.5184 2.20356 22.3718C2.96872 21.1957 4.02816 20.2843 5.3819 19.6375C6.73564 18.9906 8.28066 18.6672 10.017 18.6672ZM4.41074 26.3409C4.41074 27.7816 4.95518 28.9576 6.04405 29.869C7.13293 30.7805 8.53081 31.2362 10.2377 31.2362C12.0623 31.2362 13.5485 30.7805 14.6962 29.869C15.8734 28.9576 16.4619 27.7816 16.4619 26.3409C16.4619 24.9885 15.8586 23.8859 14.652 23.0333C13.4749 22.1806 11.9299 21.7543 10.017 21.7543C8.36895 21.7543 7.01521 22.1806 5.95577 23.0333C4.92575 23.8859 4.41074 24.9885 4.41074 26.3409Z" stroke="black" stroke-width="2"/>
<path d="M48.9785 33.7059H26.7743V30.6188H35.8237V4.7311H28.9373V1.64398H39.1345V30.6188H48.9785V33.7059Z" stroke="black" stroke-width="2"/>
<path d="M53.3756 22.46C53.3756 20.0197 53.7876 17.9175 54.6116 16.1534C55.4651 14.3894 56.6569 13.0369 58.1873 12.0961C59.747 11.1258 61.5716 10.6407 63.6611 10.6407C65.6622 10.6407 67.3985 11.1258 68.87 12.0961C70.3414 13.0663 71.4745 14.4629 72.269 16.2857C73.0636 18.0792 73.4609 20.2108 73.4609 22.6805V23.0333H56.6422C56.7894 25.5324 57.5251 27.5169 58.8494 28.987C60.1737 30.4571 61.8806 31.1921 63.9701 31.1921C65.8535 31.1921 67.3397 30.7217 68.4286 29.7808C69.5469 28.84 70.1943 27.5169 70.3709 25.8117H73.4609C73.1666 28.5166 72.1955 30.6041 70.5474 32.0741C68.9289 33.5442 66.7364 34.2792 63.9701 34.2792C61.8217 34.2792 59.953 33.8088 58.3638 32.8679C56.7747 31.8977 55.5386 30.5306 54.6558 28.7665C53.8023 26.973 53.3756 24.8708 53.3756 22.46ZM63.6611 13.7278C61.7776 13.669 60.2326 14.1983 59.026 15.3155C57.8488 16.4327 57.1867 17.9763 57.0395 19.9462H70.0177C69.9 18.0939 69.2673 16.6091 68.1196 15.4919C66.9718 14.3747 65.4857 13.7866 63.6611 13.7278Z" stroke="black" stroke-width="2"/>
<path d="M80.6391 11.6551H84.612L90.6155 19.8139L96.7073 11.6551H100.68L92.7344 22.5923L100.945 33.7059H96.9722L90.748 25.2825L84.6561 33.7059H80.2418L88.6291 22.46L80.6391 11.6551Z" stroke="black" stroke-width="2"/>
<path d="M115.893 18.6672C117.276 18.6672 118.541 18.873 119.689 19.2846C120.866 19.6669 121.675 20.1667 122.117 20.7841L122.338 21.0928V14.7422H109.315V11.6551H125.648V33.7059H122.338V31.6331L122.117 31.8536C121.41 32.5592 120.513 33.1473 119.424 33.6177C118.335 34.0881 117.232 34.3233 116.113 34.3233C114.318 34.3233 112.729 33.9852 111.346 33.309C109.992 32.6327 108.918 31.6919 108.123 30.4865C107.358 29.281 106.976 27.8992 106.976 26.3409C106.976 24.8414 107.343 23.5184 108.079 22.3718C108.844 21.1957 109.904 20.2843 111.257 19.6375C112.611 18.9906 114.156 18.6672 115.893 18.6672ZM110.286 26.3409C110.286 27.7816 110.831 28.9576 111.92 29.869C113.008 30.7805 114.406 31.2362 116.113 31.2362C117.938 31.2362 119.424 30.7805 120.572 29.869C121.749 28.9576 122.338 27.7816 122.338 26.3409C122.338 24.9885 121.734 23.8859 120.528 23.0333C119.35 22.1806 117.805 21.7543 115.893 21.7543C114.245 21.7543 112.891 22.1806 111.831 23.0333C110.801 23.8859 110.286 24.9885 110.286 26.3409Z" stroke="black" stroke-width="2"/>
<path d="M134.283 33.7059V11.6551H152.956L153 33.7059H149.689L149.645 14.7422H137.594V33.7059H134.283Z" stroke="black" stroke-width="2"/>
<path d="M179.425 33.7059H176.114V31.0157C175.29 32.0447 174.26 32.8532 173.024 33.4413C171.788 33.9999 170.39 34.2792 168.83 34.2792C165.711 34.2792 163.224 33.2502 161.37 31.1921C159.545 29.134 158.633 26.3409 158.633 22.8128C158.633 20.3137 159.045 18.1527 159.869 16.3298C160.693 14.507 161.87 13.1104 163.401 12.1402C164.931 11.1405 166.741 10.6407 168.83 10.6407C171.95 10.6407 174.378 11.8021 176.114 14.1247V4.7311H173.642V1.64398H179.425V33.7059ZM161.944 22.8128C161.944 25.4001 162.562 27.4581 163.798 28.987C165.063 30.5159 166.77 31.2803 168.919 31.2803C171.126 31.2803 172.877 30.5159 174.172 28.987C175.467 27.4581 176.114 25.4001 176.114 22.8128C176.114 19.9903 175.467 17.7558 174.172 16.1093C172.877 14.4629 171.126 13.6396 168.919 13.6396C166.77 13.6396 165.063 14.4629 163.798 16.1093C162.562 17.7558 161.944 19.9903 161.944 22.8128Z" stroke="black" stroke-width="2"/>
<path d="M185.72 22.46C185.72 20.0197 186.132 17.9175 186.956 16.1534C187.81 14.3894 189.001 13.0369 190.532 12.0961C192.091 11.1258 193.916 10.6407 196.006 10.6407C198.007 10.6407 199.743 11.1258 201.214 12.0961C202.686 13.0663 203.819 14.4629 204.613 16.2857C205.408 18.0792 205.805 20.2108 205.805 22.6805V23.0333H188.987C189.134 25.5324 189.87 27.5169 191.194 28.987C192.518 30.4571 194.225 31.1921 196.315 31.1921C198.198 31.1921 199.684 30.7217 200.773 29.7808C201.891 28.84 202.539 27.5169 202.715 25.8117H205.805C205.511 28.5166 204.54 30.6041 202.892 32.0741C201.273 33.5442 199.081 34.2792 196.315 34.2792C194.166 34.2792 192.297 33.8088 190.708 32.8679C189.119 31.8977 187.883 30.5306 187 28.7665C186.147 26.973 185.72 24.8708 185.72 22.46ZM196.006 13.7278C194.122 13.669 192.577 14.1983 191.37 15.3155C190.193 16.4327 189.531 17.9763 189.384 19.9462H202.362C202.244 18.0939 201.612 16.6091 200.464 15.4919C199.316 14.3747 197.83 13.7866 196.006 13.7278Z" stroke="black" stroke-width="2"/>
<path d="M216.338 33.7059V11.6551H233.863V14.9627H219.649V33.7059H216.338Z" stroke="black" stroke-width="2"/>
<path d="M6.61792 74.3991V79.3826H3.30715V47.3207H6.61792V69.9007L18.3601 57.3318H22.333L13.1953 67.2546L23.0393 79.3826H18.8457L10.8998 69.7243L6.61792 74.3991Z" stroke="black" stroke-width="2"/>
<path d="M27.1716 68.1367C27.1716 65.814 27.613 63.7706 28.4959 62.0065C29.4082 60.2425 30.6589 58.8606 32.2481 57.861C33.8373 56.8319 35.6619 56.3174 37.7219 56.3174C39.7525 56.3174 41.5477 56.8319 43.1074 57.861C44.6671 58.8606 45.8884 60.2425 46.7713 62.0065C47.6542 63.7706 48.0956 65.814 48.0956 68.1367C48.0956 70.4299 47.6542 72.4733 46.7713 74.2668C45.9179 76.0309 44.726 77.4274 43.1957 78.4564C41.6654 79.4561 39.8996 79.9559 37.8985 79.9559C35.7796 79.9559 33.9108 79.4561 32.2922 78.4564C30.7031 77.4274 29.4523 76.0309 28.54 74.2668C27.6277 72.4733 27.1716 70.4299 27.1716 68.1367ZM37.8985 76.8688C39.2522 76.8688 40.4441 76.5013 41.4741 75.7662C42.5041 75.0018 43.3134 73.9728 43.902 72.6791C44.4906 71.3561 44.7849 69.8419 44.7849 68.1367C44.7849 66.4314 44.4758 64.9319 43.8578 63.6383C43.2693 62.3152 42.4452 61.2862 41.3858 60.5512C40.3264 59.7867 39.1051 59.4045 37.7219 59.4045C36.2799 59.4045 34.9997 59.7867 33.8814 60.5512C32.7925 61.2862 31.9391 62.3152 31.3211 63.6383C30.7325 64.9319 30.4529 66.4314 30.4823 68.1367C30.5118 69.8419 30.8355 71.3561 31.4535 72.6791C32.1009 73.9728 32.9838 75.0018 34.1021 75.7662C35.2204 76.5013 36.4859 76.8688 37.8985 76.8688Z" stroke="black" stroke-width="2"/>
<path d="M65.9565 79.3826H62.0277L53.0225 57.3318H56.6864L64.0142 75.237L71.2979 57.3318H74.9618L65.9565 79.3826Z" stroke="black" stroke-width="2"/>
<path d="M89.4236 64.3439C90.8068 64.3439 92.0723 64.5497 93.22 64.9613C94.3972 65.3436 95.2065 65.8434 95.6479 66.4608L95.8686 66.7695V60.4189H82.8463V57.3318H99.1794V79.3826H95.8686V77.3098L95.6479 77.5303C94.9416 78.2359 94.044 78.824 92.9551 79.2944C91.8663 79.7648 90.7627 80 89.6444 80C87.8492 80 86.26 79.6619 84.8769 78.9857C83.5231 78.3094 82.449 77.3686 81.6544 76.1632C80.8892 74.9577 80.5066 73.5759 80.5066 72.0176C80.5066 70.5181 80.8745 69.1951 81.6102 68.0485C82.3754 66.8724 83.4348 65.961 84.7886 65.3141C86.1423 64.6673 87.6873 64.3439 89.4236 64.3439ZM83.8174 72.0176C83.8174 73.4583 84.3619 74.6343 85.4507 75.5457C86.5396 76.4572 87.9375 76.9129 89.6444 76.9129C91.469 76.9129 92.9551 76.4572 94.1029 75.5457C95.28 74.6343 95.8686 73.4583 95.8686 72.0176C95.8686 70.6651 95.2653 69.5626 94.0587 68.71C92.8816 67.8573 91.3365 67.431 89.4236 67.431C87.7756 67.431 86.4219 67.8573 85.3624 68.71C84.3324 69.5626 83.8174 70.6651 83.8174 72.0176Z" stroke="black" stroke-width="2"/>
<path d="M117.217 76.8688C118.806 76.8688 120.174 76.3837 121.322 75.4134C122.499 74.4432 123.279 73.1348 123.662 71.4884H126.884C126.384 74.0757 125.266 76.1338 123.529 77.6626C121.793 79.1915 119.689 79.9559 117.217 79.9559C115.069 79.9559 113.2 79.4855 111.611 78.5446C110.021 77.5744 108.785 76.2073 107.903 74.4432C107.049 72.6497 106.622 70.5475 106.622 68.1367C106.622 65.6964 107.034 63.5942 107.858 61.8301C108.712 60.0661 109.904 58.7136 111.434 57.7728C112.994 56.8025 114.833 56.3174 116.952 56.3174C119.571 56.3174 121.778 57.126 123.574 58.743C125.369 60.3307 126.472 62.4916 126.884 65.2259H123.662C123.368 63.4325 122.602 62.0212 121.366 60.9922C120.16 59.9338 118.688 59.4045 116.952 59.4045C114.745 59.4045 113.008 60.1837 111.743 61.7419C110.507 63.3002 109.904 65.4318 109.933 68.1367C109.992 70.8122 110.669 72.9437 111.964 74.5314C113.288 76.0897 115.039 76.8688 117.217 76.8688Z" stroke="black" stroke-width="2"/>
<path d="M138.962 74.3991V79.3826H135.652V47.3207H138.962V69.9007L150.705 57.3318H154.677L145.54 67.2546L155.384 79.3826H151.19L143.244 69.7243L138.962 74.3991Z" stroke="black" stroke-width="2"/>
<path d="M168.83 64.3439C170.213 64.3439 171.479 64.5497 172.627 64.9613C173.804 65.3436 174.613 65.8434 175.055 66.4608L175.275 66.7695V60.4189H162.253V57.3318H178.586V79.3826H175.275V77.3098L175.055 77.5303C174.348 78.2359 173.451 78.824 172.362 79.2944C171.273 79.7648 170.169 80 169.051 80C167.256 80 165.667 79.6619 164.284 78.9857C162.93 78.3094 161.856 77.3686 161.061 76.1632C160.296 74.9577 159.913 73.5759 159.913 72.0176C159.913 70.5181 160.281 69.1951 161.017 68.0485C161.782 66.8724 162.842 65.961 164.195 65.3141C165.549 64.6673 167.094 64.3439 168.83 64.3439ZM163.224 72.0176C163.224 73.4583 163.769 74.6343 164.857 75.5457C165.946 76.4572 167.344 76.9129 169.051 76.9129C170.876 76.9129 172.362 76.4572 173.51 75.5457C174.687 74.6343 175.275 73.4583 175.275 72.0176C175.275 70.6651 174.672 69.5626 173.465 68.71C172.288 67.8573 170.743 67.431 168.83 67.431C167.182 67.431 165.829 67.8573 164.769 68.71C163.739 69.5626 163.224 70.6651 163.224 72.0176Z" stroke="black" stroke-width="2"/>
</svg>
